<?xml version="1.0" encoding="UTF-8"?>
<svg xmlns="http://www.w3.org/2000/svg" viewBox="0 0 512 512">
  <defs>
    <clipPath id="clay-disc">
      <circle cx="256" cy="256" r="190"/>
    </clipPath>
  </defs>
  <circle cx="256" cy="256" r="190" fill="#7c6cf2"/>
  <g clip-path="url(#clay-disc)">
    <path d="M55 221c42-45 97-72 154-72 105 0 190 85 190 190 0 51-19 98-50 134 58-46 97-117 97-196 0-105-85-190-190-190-93 0-171 67-201 156Z" fill="#9d91ff"/>
    <path d="M55 263c52 51 117 78 194 78 85 0 162-34 218-89v207H55Z" fill="#5c4ed2"/>
  </g>
  <path d="M346 151c-27-24-62-37-100-37-70 0-126 37-126 89 0 46 36 70 105 84 54 11 73 22 73 47 0 22-22 35-54 35-33 0-65-13-91-37" fill="none" stroke="#1b1b2a" stroke-linecap="round" stroke-width="34"/>
  <path d="M346 151c-27-24-62-37-100-37-70 0-126 37-126 89" fill="none" stroke="#e7e3ff" stroke-linecap="round" stroke-width="12"/>
</svg>
