<?xml version="1.0" encoding="UTF-8"?>
<svg xmlns="http://www.w3.org/2000/svg" viewBox="0 0 512 512">
  <defs>
    <linearGradient id="background" x1="72" y1="48" x2="440" y2="464" gradientUnits="userSpaceOnUse">
      <stop stop-color="#242a35"/>
      <stop offset="1" stop-color="#11141a"/>
    </linearGradient>
    <linearGradient id="clay" x1="154" y1="98" x2="322" y2="412" gradientUnits="userSpaceOnUse">
      <stop stop-color="#f4f7fa"/>
      <stop offset="0.48" stop-color="#b8c2cc"/>
      <stop offset="1" stop-color="#66717e"/>
    </linearGradient>
    <linearGradient id="brush" x1="314" y1="232" x2="417" y2="365" gradientUnits="userSpaceOnUse">
      <stop stop-color="#77d4ff"/>
      <stop offset="1" stop-color="#218bd3"/>
    </linearGradient>
    <filter id="shadow" x="-30%" y="-30%" width="160%" height="160%">
      <feDropShadow dx="0" dy="12" stdDeviation="13" flood-color="#000" flood-opacity="0.38"/>
    </filter>
  </defs>
  <rect x="24" y="24" width="464" height="464" rx="104" fill="url(#background)"/>
  <path d="M256 78c-69 0-119 54-119 129 0 45 17 73 38 97 10 11 15 25 15 40v31c0 29 24 53 53 53h26c29 0 53-24 53-53v-31c0-15 5-29 15-40 21-24 38-52 38-97 0-75-50-129-119-129Z" fill="url(#clay)" filter="url(#shadow)"/>
  <path d="m151 176 105-98 42 125-161 4m161-4 77 4-53 137m-132 31 66-73 66 73M151 176l105 126 42-99m-108 172 66-73m66 73-66-73m0 0V78" fill="none" stroke="#4d5967" stroke-opacity="0.58" stroke-width="7" stroke-linecap="round" stroke-linejoin="round"/>
  <path d="M198 223c13-14 31-18 46-8M314 223c-13-14-31-18-46-8" fill="none" stroke="#3e4854" stroke-width="10" stroke-linecap="round"/>
  <path d="M239 269c7 8 27 8 34 0" fill="none" stroke="#505b67" stroke-width="8" stroke-linecap="round"/>
  <circle cx="351" cy="313" r="70" fill="#171b22" fill-opacity="0.88" stroke="url(#brush)" stroke-width="14"/>
  <circle cx="351" cy="313" r="30" fill="url(#brush)"/>
  <path d="m397 361 46 46" stroke="#77d4ff" stroke-width="22" stroke-linecap="round"/>
  <circle cx="351" cy="313" r="9" fill="#eaf8ff"/>
</svg>
